<?xml version="1.0" encoding="UTF-8"?>
<!-- Generated by Pixelmator Pro 3.2.3 -->
<svg width="2354" height="2396" viewBox="0 0 2354 2396" xmlns="http://www.w3.org/2000/svg" xmlns:xlink="http://www.w3.org/1999/xlink">
    <g id="g1">
        <path id="path1" fill="#fcfdfe" stroke="none" d="M 2268.5 1895.900024 L 1909.699951 1533 L 1500.599976 1947.799927 L 1859.400024 2310.700195 C 1971.199951 2423.700195 2153.399902 2424.600098 2266.300049 2312.800049 C 2267 2312.100098 2267.699951 2311.400146 2268.399902 2310.700195 C 2383 2196 2383 2010.400024 2268.5 1895.900024 L 2268.5 1895.900024 Z"/>
        <path id="path2" fill="#ffffff" stroke="none" d="M 1762 305.300049 C 1352.699951 -102.899902 690.200012 -102.899902 280.799988 305.300049 C -103.400002 718.400024 -92 1361.400024 306.700012 1760.599976 C 705.400024 2159.800049 1348.400024 2172.100098 1762 1788.5 C 2171.600098 1379 2171.600098 714.900024 1762 305.300049 C 1762 305.300049 1762 305.300049 1762 305.300049 L 1762 305.300049 Z M 1349.800049 1376.400024 C 1165.699951 1544.799927 881.599976 1538.5 705.099976 1362.099976 C 528.599976 1185.699951 522.099976 901.699951 690.299988 717.400024 C 874.400024 549 1158.5 555.300049 1335 731.699951 C 1511.599976 908.099976 1518.099976 1192.099976 1349.800049 1376.400024 L 1349.800049 1376.400024 Z"/>
    </g>
</svg>
